<svg xmlns="http://www.w3.org/2000/svg" width="22" height="23.245" viewBox="0 0 22 23.245">
  <path id="Subtraction_16" data-name="Subtraction 16" d="M1.5,18.569a3.5,3.5,0,0,1-3.5-3.5V7.5a3.487,3.487,0,0,1,.874-2.314,1.523,1.523,0,0,1,.382-.459L6.551-1.24a1.5,1.5,0,0,1,1.9,0l7.3,5.963a1.522,1.522,0,0,1,.383.46A3.487,3.487,0,0,1,17,7.5v7.573a3.5,3.5,0,0,1-3.5,3.5Z" transform="translate(3.5 3.177)" fill="#151515" stroke="#151515" stroke-linecap="round" stroke-linejoin="round" stroke-width="3"/>
</svg>
